<svg width="101" height="37" viewBox="0 0 101 37" fill="none" xmlns="http://www.w3.org/2000/svg">
<g clip-path="url(#clip0_35_13)">
<path d="M28.7994 14.5294C28.7994 6.53233 22.3528 0.0493469 14.4004 0.0493469H0.000732422V36.9993H28.7994L28.7136 36.8883L21.2259 27.2821C25.7355 24.8364 28.7994 20.0431 28.7994 14.5294Z" fill="white"/>
<path d="M22.1522 0.574597C23.4132 1.28558 24.5848 2.17503 25.6352 3.23134C27.1351 4.73891 28.2973 6.49532 29.0858 8.40771C31.4117 8.96707 33.4339 10.3216 34.8529 12.1672L39.9224 5.66246C36.5778 2.17648 31.8842 0.00726318 26.6863 0.00726318C25.1216 0.00726318 23.6022 0.204597 22.1522 0.574597Z" fill="white"/>
<path d="M26.6864 28.8825C25.7976 28.8825 24.9347 28.7693 24.1116 28.556L29.9717 36.075L30.3981 36.6213C34.0998 35.8588 37.396 33.9776 39.9224 31.3441L34.8529 24.8393C32.9635 27.2966 30.0064 28.8825 26.6864 28.8825Z" fill="white"/>
<path d="M47.031 14.101V7.08597H50.1414C50.7666 7.08597 51.242 7.14978 51.5674 7.27738C51.8927 7.40179 52.1527 7.62351 52.3473 7.94252C52.5419 8.26153 52.6392 8.61403 52.6392 9.00004C52.6392 9.49769 52.4781 9.91719 52.1559 10.2585C51.8337 10.5999 51.3361 10.8168 50.663 10.9093C50.9086 11.0273 51.0952 11.1438 51.2228 11.2586C51.494 11.5075 51.7508 11.8185 51.9932 12.1917L53.2135 14.101H52.0459L51.1176 12.6415C50.8464 12.2204 50.6231 11.8982 50.4476 11.6749C50.2722 11.4516 50.1143 11.2953 49.9739 11.206C49.8367 11.1167 49.6964 11.0545 49.5528 11.0194C49.4475 10.997 49.2753 10.9859 49.036 10.9859H47.9594V14.101H47.031ZM47.9594 10.182H49.9548C50.379 10.182 50.7108 10.1389 50.9501 10.0528C51.1893 9.96345 51.3712 9.82308 51.4956 9.63168C51.62 9.43708 51.6822 9.22653 51.6822 9.00004C51.6822 8.66827 51.561 8.39551 51.3185 8.18177C51.0793 7.96804 50.6997 7.86117 50.1797 7.86117H47.9594V10.182ZM54.2566 14.101V7.08597H55.1849V14.101H54.2566ZM58.8312 14.101L56.1133 7.08597H57.1181L58.9413 12.1822C59.088 12.5905 59.2108 12.9733 59.3097 13.3306C59.4182 12.9478 59.5442 12.565 59.6878 12.1822L61.5827 7.08597H62.5302L59.7835 14.101H58.8312ZM63.3819 14.101V7.08597H68.4542V7.91381H64.3102V10.0623H68.191V10.8854H64.3102V13.2732H68.6169V14.101H63.3819ZM69.9136 14.101V7.08597H73.024C73.6493 7.08597 74.1246 7.14978 74.45 7.27738C74.7754 7.40179 75.0354 7.62351 75.23 7.94252C75.4246 8.26153 75.5219 8.61403 75.5219 9.00004C75.5219 9.49769 75.3608 9.91719 75.0386 10.2585C74.7164 10.5999 74.2187 10.8168 73.5456 10.9093C73.7912 11.0273 73.9778 11.1438 74.1054 11.2586C74.3766 11.5075 74.6334 11.8185 74.8759 12.1917L76.0961 14.101H74.9285L74.0002 12.6415C73.729 12.2204 73.5057 11.8982 73.3302 11.6749C73.1548 11.4516 72.9969 11.2953 72.8565 11.206C72.7193 11.1167 72.579 11.0545 72.4354 11.0194C72.3302 10.997 72.1579 10.9859 71.9186 10.9859H70.842V14.101H69.9136ZM70.842 10.182H72.8374C73.2617 10.182 73.5934 10.1389 73.8327 10.0528C74.0719 9.96345 74.2538 9.82308 74.3782 9.63168C74.5026 9.43708 74.5648 9.22653 74.5648 9.00004C74.5648 8.66827 74.4436 8.39551 74.2011 8.18177C73.9619 7.96804 73.5823 7.86117 73.0623 7.86117H70.842V10.182ZM84.7141 11.6414L85.6425 11.8759C85.4479 12.6384 85.0969 13.2205 84.5897 13.6225C84.0857 14.0213 83.4684 14.2206 82.7379 14.2206C81.9818 14.2206 81.3661 14.0675 80.8908 13.7613C80.4187 13.4518 80.0582 13.0052 79.8094 12.4214C79.5637 11.8376 79.4409 11.2108 79.4409 10.5409C79.4409 9.81032 79.5797 9.1739 79.8572 8.63158C80.1379 8.08607 80.5351 7.67295 81.0487 7.39222C81.5655 7.1083 82.1333 6.96635 82.7522 6.96635C83.454 6.96635 84.0442 7.14499 84.5227 7.50228C85.0012 7.85957 85.3346 8.36202 85.5228 9.00961L84.6089 9.22494C84.4462 8.71452 84.2101 8.34288 83.9007 8.11C83.5912 7.87712 83.202 7.76068 82.7331 7.76068C82.194 7.76068 81.7426 7.88988 81.3789 8.14828C81.0184 8.40668 80.7648 8.7544 80.618 9.19144C80.4713 9.6253 80.3979 10.0735 80.3979 10.5361C80.3979 11.1326 80.4841 11.6542 80.6563 12.1008C80.8318 12.5442 81.1029 12.876 81.4698 13.0961C81.8367 13.3162 82.2338 13.4263 82.6613 13.4263C83.1813 13.4263 83.6215 13.2764 83.982 12.9765C84.3425 12.6766 84.5865 12.2316 84.7141 11.6414ZM86.9488 14.101V7.08597H87.8771V14.101H86.9488ZM91.3033 14.101V7.91381H88.9921V7.08597H94.5524V7.91381H92.2316V14.101H91.3033ZM97.4857 14.101V11.1294L94.7821 7.08597H95.9114L97.2943 9.20101C97.5495 9.59659 97.7872 9.99216 98.0073 10.3877C98.2178 10.0209 98.4731 9.60775 98.7729 9.14838L100.132 7.08597H101.213L98.414 11.1294V14.101H97.4857Z" fill="white"/>
<path d="M57.2542 26.4178L59.0256 26.8652C58.6542 28.3201 57.9846 29.431 57.0168 30.198C56.055 30.9589 54.8771 31.3393 53.4831 31.3393C52.0405 31.3393 50.8656 31.0471 49.9586 30.4628C49.0577 29.8723 48.3698 29.0201 47.895 27.9061C47.4263 26.7922 47.192 25.596 47.192 24.3177C47.192 22.9237 47.4568 21.7093 47.9864 20.6745C48.522 19.6336 49.2799 18.8453 50.2599 18.3096C51.2461 17.7678 52.3296 17.4969 53.5105 17.4969C54.8497 17.4969 55.9759 17.8378 56.8889 18.5196C57.802 19.2014 58.4381 20.1601 58.7973 21.3958L57.0533 21.8067C56.7428 20.8327 56.2924 20.1236 55.7019 19.6792C55.1115 19.2348 54.3688 19.0127 53.474 19.0127C52.4453 19.0127 51.5839 19.2592 50.89 19.7523C50.2021 20.2453 49.7182 20.9088 49.4382 21.7428C49.1581 22.5707 49.0181 23.4259 49.0181 24.3086C49.0181 25.4469 49.1825 26.4421 49.5112 27.2944C49.846 28.1405 50.3634 28.7736 51.0635 29.1936C51.7635 29.6136 52.5213 29.8236 53.337 29.8236C54.3293 29.8236 55.1693 29.5375 55.8572 28.9653C56.545 28.3931 57.0107 27.5439 57.2542 26.4178ZM60.6782 24.5916C60.6782 22.3698 61.2748 20.6319 62.4679 19.3779C63.661 18.1178 65.2011 17.4878 67.0881 17.4878C68.3238 17.4878 69.4378 17.783 70.43 18.3735C71.4222 18.964 72.177 19.7888 72.6945 20.848C73.218 21.9011 73.4797 23.0972 73.4797 24.4364C73.4797 25.7938 73.2058 27.0083 72.6579 28.0796C72.1101 29.151 71.334 29.9636 70.3296 30.5175C69.3252 31.0654 68.2416 31.3393 67.079 31.3393C65.8189 31.3393 64.6928 31.035 63.7006 30.4262C62.7083 29.8175 61.9566 28.9866 61.4452 27.9335C60.9339 26.8804 60.6782 25.7665 60.6782 24.5916ZM62.5044 24.619C62.5044 26.2321 62.9366 27.5044 63.801 28.4357C64.6715 29.361 65.7611 29.8236 67.0698 29.8236C68.403 29.8236 69.4987 29.3549 70.357 28.4174C71.2213 27.48 71.6535 26.15 71.6535 24.4273C71.6535 23.3376 71.4679 22.388 71.0966 21.5784C70.7313 20.7627 70.1926 20.1327 69.4804 19.6883C68.7743 19.2379 67.9799 19.0127 67.0972 19.0127C65.8433 19.0127 64.7628 19.4449 63.8558 20.3092C62.9549 21.1675 62.5044 22.6041 62.5044 24.619ZM75.799 31.1111V17.7252H81.734C82.9271 17.7252 83.8341 17.847 84.455 18.0904C85.0759 18.3278 85.572 18.7509 85.9433 19.3596C86.3147 19.9684 86.5003 20.641 86.5003 21.3776C86.5003 22.3272 86.1929 23.1276 85.5781 23.779C84.9633 24.4303 84.0137 24.8442 82.7293 25.0208C83.198 25.246 83.5541 25.4682 83.7976 25.6873C84.315 26.1621 84.805 26.7556 85.2677 27.4678L87.596 31.1111H85.3681L83.5967 28.3261C83.0793 27.5226 82.6532 26.9078 82.3184 26.4817C81.9836 26.0556 81.6823 25.7573 81.4144 25.5869C81.1527 25.4164 80.8848 25.2977 80.6109 25.2308C80.41 25.1882 80.0813 25.1669 79.6248 25.1669H77.5703V31.1111H75.799ZM77.5703 23.6329H81.3779C82.1875 23.6329 82.8206 23.5507 83.2771 23.3863C83.7337 23.2159 84.0806 22.9481 84.318 22.5828C84.5554 22.2115 84.6741 21.8098 84.6741 21.3776C84.6741 20.7445 84.4428 20.224 83.9802 19.8162C83.5237 19.4083 82.7993 19.2044 81.8071 19.2044H77.5703V23.6329ZM89.2852 31.1111V17.7252H94.3346C95.2233 17.7252 95.9021 17.7678 96.3708 17.853C97.0282 17.9626 97.5791 18.1726 98.0235 18.4831C98.4678 18.7874 98.8239 19.2166 99.0918 19.7705C99.3657 20.3245 99.5027 20.9332 99.5027 21.5967C99.5027 22.735 99.1405 23.6998 98.4161 24.4912C97.6917 25.2764 96.383 25.6691 94.4898 25.6691H91.0566V31.1111H89.2852ZM91.0566 24.0894H94.5172C95.6616 24.0894 96.4743 23.8764 96.9552 23.4503C97.436 23.0242 97.6765 22.4246 97.6765 21.6515C97.6765 21.0915 97.5334 20.6136 97.2473 20.2179C96.9673 19.8162 96.596 19.5514 96.1334 19.4236C95.8351 19.3444 95.2842 19.3049 94.4807 19.3049H91.0566V24.0894ZM99.6031 31.1111V29.2392H101.475V31.1111H99.6031Z" fill="white"/>
</g>
<defs>
<clipPath id="clip0_35_13">
<rect width="101" height="37" fill="white"/>
</clipPath>
</defs>
</svg>
